<svg xmlns="http://www.w3.org/2000/svg" viewBox="0 0 64 64" role="img" aria-label="CascadeNet favicon">
  <g transform="translate(4 4) scale(0.22)">
    <path fill="#2563eb" d="M156.47,120.45c2.13-5.27,3.93-10.76,5.39-16.49l-34.01-18.52-34,18.52c3.02,11.79,7.41,22.53,13.23,32.41,5.52,9.37,12.41,18.14,20.78,26.4,5.29-5.22,9.99-10.65,14.14-16.31l64.71,38.31c-17.72,26.2-42.23,48.79-73.71,68.09-1.58.96-3.36,1.45-5.14,1.45s-3.57-.49-5.14-1.45C51.61,209.27,16.04,148.86,13.94,68.17c-.09-3.69,1.89-7.13,5.13-8.89L123.15,2.6c.37-.2.74-.37,1.13-.52.57-.23,1.17-.39,1.77-.5.59-.11,1.2-.17,1.81-.17s1.21.06,1.81.17c.6.11,1.19.27,1.76.5.39.15.76.32,1.13.52l104.08,56.68c3.25,1.76,5.23,5.2,5.13,8.89-.65,24.79-4.45,47.66-11.47,68.72l-73.83-16.44Z"/>
  </g>
</svg>
